<svg xmlns="http://www.w3.org/2000/svg" width="700" height="386.003" viewBox="0 0 700 386.003">
  <g id="XMLID_1_" transform="translate(-70.95 -104.637)">
    <g id="XMLID_295_">
      <path id="XMLID_330_" d="M138.67,320.07q19.8,0,33.46,9.1a56.3,56.3,0,0,1,20.48,24.36q6.825,15.255,6.83,34.26v12.58H116.19q5.88,22.755,34.26,22.75,18.465,0,36.67-10.17l11.78,29.18a73.506,73.506,0,0,1-22.35,10.71,99.688,99.688,0,0,1-29.04,4.02q-35.61,0-56.08-17.93T70.95,389.14q0-20.88,8.57-36.54a59.263,59.263,0,0,1,23.96-24.09Q118.855,320.065,138.67,320.07ZM137.6,354.6a20.218,20.218,0,0,0-14.86,6.02q-6.03,6.03-7.09,15.93h43.9q-1.605-9.9-7.09-15.93Q146.955,354.6,137.6,354.6Z" fill="#fff"/>
      <path id="XMLID_328_" d="M263.49,352.61l20.64-29.48,44.78.01-42.98,61.63,48.48,69.39H289.58l-26.02-37.21-26.1,37.21-44.91.13,48.48-69.52-42.97-61.63,44.97-.01Z" fill="#fff"/>
      <path id="XMLID_326_" d="M513.7,320.07a92.9,92.9,0,0,1,22.75,3.21c8.39,2.14,10.12,3.41,10.12,3.41l.05,35.94a94.026,94.026,0,0,0-15.79-6.02,57.286,57.286,0,0,0-14.45-1.74,26.759,26.759,0,0,0-21.01,9.64q-8.43,9.63-8.43,24.63t8.43,24.09a27.445,27.445,0,0,0,21.01,9.1,55.325,55.325,0,0,0,14.45-1.87,91.227,91.227,0,0,0,15.79-6.16l-.05,36.45s-1.42,1.21-9.72,3.17a101.146,101.146,0,0,1-23.15,2.94q-20.88,0-36.81-8.03a57.259,57.259,0,0,1-24.63-23.42q-8.7-15.39-8.7-36.27t8.7-36.54a59.325,59.325,0,0,1,24.63-24.09Q492.8,320.065,513.7,320.07Z" fill="#fff"/>
      <path id="XMLID_324_" d="M614.71,327.03h36.43l-.03,32.66h-36.4v43.36q0,9.105,4.55,14.72t12.58,5.62a36.01,36.01,0,0,0,16.6-4.28l12.05,29.18q-4.56,3.75-13.92,6.69a58.409,58.409,0,0,1-17.4,2.94q-24.63,0-40.42-12.85t-15.79-36.4V359.69H554.22V327.03h18.74V311.62l41.76-23.94v39.35Z" fill="#fff"/>
      <path id="XMLID_311_" d="M709.91,355.94a75.455,75.455,0,0,0-17.67,2.41,94.841,94.841,0,0,0-17.4,5.89l-.06-36.87s2.83-1.27,13.18-3.68a124.094,124.094,0,0,1,27.84-3.61q16.32,0,28.91,6.42a46.36,46.36,0,0,1,19.41,18.07,51.671,51.671,0,0,1,6.83,26.63v82.71l-33.27.14.07-13.79q-14.46,16.605-31.85,16.6-23.55,0-35.6-11.64T658.25,413.5q0-19.8,13.38-29.71t36.67-9.9h20.34q-.54-8.565-5.49-13.25Q718.215,355.93,709.91,355.94Zm-1.33,43.09a14.912,14.912,0,0,0-10.84,4.02,13.546,13.546,0,0,0-4.15,10.17,11.336,11.336,0,0,0,3.48,8.3,12.3,12.3,0,0,0,9.1,3.48q11.775,0,22.75-10.17V399.04H708.58Z" fill="#fff"/>
      <path id="XMLID_308_" d="M376.64,355.94a75.455,75.455,0,0,0-17.67,2.41,94.84,94.84,0,0,0-17.4,5.89l-.06-36.87s2.83-1.27,13.18-3.68a124.094,124.094,0,0,1,27.84-3.61q16.32,0,28.91,6.42a46.361,46.361,0,0,1,19.41,18.07,51.671,51.671,0,0,1,6.83,26.63v82.71l-33.27.14.07-13.79q-14.46,16.605-31.85,16.6-23.55,0-35.6-11.64T324.98,413.5q0-19.8,13.38-29.71t36.67-9.9h20.34q-.54-8.565-5.49-13.25Q384.93,355.93,376.64,355.94Zm-1.34,43.09a14.912,14.912,0,0,0-10.84,4.02,13.546,13.546,0,0,0-4.15,10.17,11.336,11.336,0,0,0,3.48,8.3,12.3,12.3,0,0,0,9.1,3.48q11.775,0,22.75-10.17V399.04H375.3Z" fill="#fff"/>
      <g id="XMLID_296_">
        <path id="XMLID_306_" d="M679.91,464.63l-7.64,25.42h-4.31l-5.51-18.69-5.49,18.69h-4.31l-7.67-25.42h5.01l4.67,19.38,5.73-19.38h4.12l5.75,19.38,4.67-19.38Z" fill="#fff"/>
        <path id="XMLID_303_" d="M693.81,464.05a11.329,11.329,0,0,1,8.68,3.47q3.24,3.48,3.25,9.82t-3.25,9.81a12.514,12.514,0,0,1-17.34,0q-3.24-3.48-3.25-9.81,0-6.345,3.25-9.82A11.3,11.3,0,0,1,693.81,464.05Zm0,23.05a6.49,6.49,0,0,0,5.25-2.45q2.01-2.46,2.01-7.29,0-4.86-2.01-7.32a6.832,6.832,0,0,0-10.5,0q-2.01,2.46-2.01,7.32t2.01,7.29A6.476,6.476,0,0,0,693.81,487.1Z" fill="#fff"/>
        <path id="XMLID_301_" d="M723.99,468.75a10.2,10.2,0,0,0-2.76-.29q-3.45,0-5.92,3.62v17.97h-4.53V464.63h4.53v3.54q2.85-4.125,6.61-4.12a11.778,11.778,0,0,1,2.06.19v4.51Z" fill="#fff"/>
        <path id="XMLID_299_" d="M748.14,490.04h-5.39l-8.27-12.91-2.83,2.8v10.11h-4.53V454.92h4.53v19.91l9.8-10.2h5.7l-9.63,9.46Z" fill="#fff"/>
        <path id="XMLID_297_" d="M760.74,490.64q-10.425,0-10.9-8.19h4.53q.045,4.65,6.32,4.65a6.84,6.84,0,0,0,4.28-1.16,3.568,3.568,0,0,0,1.47-2.91A2.487,2.487,0,0,0,765,480.6a36.534,36.534,0,0,0-5.93-1.83,21.711,21.711,0,0,1-6.56-2.52c-1.38-.93-2.07-2.55-2.07-4.89a6.476,6.476,0,0,1,2.57-5.24,10.678,10.678,0,0,1,6.89-2.07q9.99,0,10.21,7.11h-4.5c-.16-2.4-1.96-3.59-5.39-3.59a7.485,7.485,0,0,0-3.77.86,2.748,2.748,0,0,0-1.5,2.52,2.26,2.26,0,0,0,1.15,2.14,28.692,28.692,0,0,0,5.76,1.77,22.224,22.224,0,0,1,6.85,2.6q2.235,1.485,2.24,5.13a7.138,7.138,0,0,1-2.77,5.76A11.309,11.309,0,0,1,760.74,490.64Z" fill="#fff"/>
      </g>
    </g>
    <g id="XMLID_4_">
      <g id="XMLID_289_">
        <g id="XMLID_293_">
          <circle id="XMLID_407_" cx="12.89" cy="12.89" r="12.89" transform="translate(475.69 231.46)" fill="#fff"/>
        </g>
        <path id="XMLID_290_" d="M498.26,229.52a19.3,19.3,0,0,1,2.35,1.83,17.7,17.7,0,0,1-21.7,27.82,19.3,19.3,0,0,1-2.35-1.83,17.7,17.7,0,0,1,21.7-27.82m2.45-3.73h0a22.186,22.186,0,1,0,2.93,2.29,23.823,23.823,0,0,0-2.93-2.29Z" fill="#fff"/>
      </g>
      <path id="XMLID_286_" d="M447.22,123.51a27.37,27.37,0,0,1,.23,3.28,26.36,26.36,0,1,1-52.72,0,25.32,25.32,0,0,1,.23-3.28,83.926,83.926,0,0,0-55.74,98.52,26.34,26.34,0,1,1,27.25,45.07,83.9,83.9,0,0,0,109.1.13,26.348,26.348,0,1,1,27.36-45.01,83.942,83.942,0,0,0-55.71-98.71ZM421.09,242.08a38.74,38.74,0,1,1,38.74-38.74A38.786,38.786,0,0,1,421.09,242.08Z" fill="#fff" stroke="#000" stroke-miterlimit="10" stroke-width="0.25"/>
      <g id="XMLID_280_">
        <g id="XMLID_284_">
          <circle id="XMLID_408_" cx="12.89" cy="12.89" r="12.89" transform="translate(340.42 231.39)" fill="#fff"/>
        </g>
        <path id="XMLID_281_" d="M362.99,229.45a19.3,19.3,0,0,1,2.35,1.83,17.7,17.7,0,0,1-21.7,27.82,19.3,19.3,0,0,1-2.35-1.83,17.7,17.7,0,0,1,21.7-27.82m2.44-3.73h0a22.186,22.186,0,1,0,2.93,2.29,23.087,23.087,0,0,0-2.93-2.29Z" fill="#fff"/>
      </g>
      <path id="XMLID_279_" d="M447.22,123.53a27.067,27.067,0,0,1,.22,3.27,26.36,26.36,0,1,1-52.72,0,25.475,25.475,0,0,1,.23-3.29,84.232,84.232,0,0,0-48.39,41.05l39.69,21.84a38.718,38.718,0,0,1,69.35-.57l39.34-22.48A84.209,84.209,0,0,0,447.22,123.53Z" fill="#fff" stroke="#000" stroke-miterlimit="10" stroke-width="0.25"/>
      <g id="XMLID_277_">
        <circle id="XMLID_409_" cx="12.89" cy="12.89" r="12.89" transform="translate(408.2 113.91)" fill="#fff"/>
      </g>
      <path id="XMLID_7_" d="M430.77,111.97a19.3,19.3,0,0,1,2.35,1.83,17.7,17.7,0,0,1-21.7,27.82,19.3,19.3,0,0,1-2.35-1.83,17.7,17.7,0,0,1,21.7-27.82m2.44-3.73h0a22.186,22.186,0,1,0,2.93,2.29,23.09,23.09,0,0,0-2.93-2.29Z" fill="#fff"/>
      <path id="XMLID_6_" d="M382.31,203.35a38.436,38.436,0,0,1,3.92-16.96l-39.67-21.83a83.841,83.841,0,0,0-7.38,57.5,26.341,26.341,0,1,1,27.25,45.07,83.659,83.659,0,0,0,54.63,20.22V242.1A38.8,38.8,0,0,1,382.31,203.35Z" fill="#fff" stroke="#000" stroke-miterlimit="10" stroke-width="0.25"/>
    </g>
  </g>
</svg>
